<?xml version="1.0" encoding="utf-8"?>
<!-- Generator: Adobe Illustrator 19.0.0, SVG Export Plug-In . SVG Version: 6.00 Build 0)  -->
<svg version="1.1" xmlns="http://www.w3.org/2000/svg" xmlns:xlink="http://www.w3.org/1999/xlink" x="0px" y="0px"
	 viewBox="0 0 70 70" style="enable-background:new 0 0 70 70;" xml:space="preserve">
<style type="text/css">
	.st0{display:none;}
	.st1{display:inline;}
	.st2{fill:#4BB85E;}
	.st3{display:inline;fill:url(#XMLID_17_);}
	.st4{fill:#FFFFFF;stroke:#000000;stroke-width:3;stroke-miterlimit:10;}
	.st5{stroke:#000000;stroke-width:3;stroke-miterlimit:10;}
	.st6{display:inline;fill:#FFFFFF;}
	.st7{font-family:'Montserrat-Black';}
	.st8{font-size:150px;}
</style>
<g id="Layer_2" class="st0">
	<rect id="XMLID_5_" x="18.1" y="17.7" class="st1" width="32" height="32"/>
</g>
<g id="Layer_1">
	<g id="XMLID_1_">
		<path id="XMLID_2_" class="st2" d="M30,1.4c9.3,9.4,13.4,13.6,17.1,17.4c-8.2,8.1-15.8,15.7-28,27.8C23.2,29.6,26,17.9,30,1.4z"/>
		<path id="XMLID_3_" class="st2" d="M33.3,68.8c-3.4-4-6.7-7.9-10.8-12.7c3.9-3.4,7.9-7.1,13.3-11.9c3.4,3.8,6.8,7.6,11.2,12.5
			C42.6,60.6,38.6,64.1,33.3,68.8z"/>
		<path id="XMLID_4_" class="st2" d="M50.1,46.7c-2.9-2.5-5.8-5-9.3-8c3.2-3.5,5.6-6.1,8-8.8c0.3,0,0.5-0.2,0.5-0.5
			c1.3-1,2.6-1.9,5.1-3.8c3.7,3.7,7.2,7.2,12.2,12.2c-5.3,4-9.5,7.2-14.2,10.8C52.2,48.4,51.1,47.5,50.1,46.7L50.1,46.7z"/>
		<path id="XMLID_6_" class="st2" d="M14.2,49.6c-4.6-4.9-7.8-8.3-11.8-12.7c4.1-3.6,7.6-6.7,11.8-10.5C14.2,34,14.2,40.7,14.2,49.6
			z"/>
		<path id="XMLID_7_" class="st2" d="M49.4,29.4c0,0.3-0.1,0.5-0.5,0.5C49,29.8,49.2,29.6,49.4,29.4z"/>
		<path id="XMLID_8_" class="st2" d="M50.1,46.7L50.1,46.7L50.1,46.7z"/>
	</g>
</g>
<g id="background" class="st0">
	<linearGradient id="XMLID_17_" gradientUnits="userSpaceOnUse" x1="-715" y1="785" x2="785" y2="-715">
		<stop  offset="0" style="stop-color:#00A651"/>
		<stop  offset="0.1119" style="stop-color:#00955F"/>
		<stop  offset="0.4712" style="stop-color:#006583"/>
		<stop  offset="0.7186" style="stop-color:#24428D"/>
		<stop  offset="0.8325" style="stop-color:#2F3191"/>
		<stop  offset="1" style="stop-color:#2E3192"/>
	</linearGradient>
	<rect id="XMLID_43_" x="-925" y="-505" class="st3" width="1920" height="1080"/>
</g>
<g id="Layer_4" class="st0">
	<g id="XMLID_9_" class="st1">
		<path id="XMLID_15_" class="st4" d="M-637.5-121.8c38.1,38.8,55,55.9,70.3,71.5c-33.7,33.5-65.1,64.7-115.3,114.5
			C-665.5-5.8-653.8-54.3-637.5-121.8z"/>
		<path id="XMLID_14_" class="st4" d="M-624.1,155.5c-14.1-16.6-27.5-32.3-44.4-52.2c15.9-14.1,32.7-29.1,54.9-48.9
			c13.9,15.5,27.9,31.1,46.2,51.4C-585.5,121.7-602,136.1-624.1,155.5z"/>
		<path id="XMLID_13_" class="st4" d="M-554.6,64.4c-12-10.3-24-20.6-38.2-32.8c13.1-14.4,23.1-25.3,33-36.2c1.4,0,2-0.6,2-2
			c5.3-4,10.7-7.9,21-15.6c15.1,15.1,29.7,29.8,50.2,50.3c-21.9,16.6-38.9,29.5-58.4,44.3c-1.2-1-5.4-4.5-9.7-8.1L-554.6,64.4z"/>
		<path id="XMLID_12_" class="st4" d="M-702.3,76.3c-19-20.3-32-34.2-48.7-52.1c16.9-14.9,31.1-27.5,48.7-43.1
			C-702.3,12.3-702.3,39.8-702.3,76.3z"/>
		<path id="XMLID_11_" class="st5" d="M-557.8-6.6c0,1.4-0.6,2-2,2C-559.1-5.3-558.4-5.9-557.8-6.6z"/>
		<path id="XMLID_10_" class="st5" d="M-554.6,64.4l-0.2-0.2L-554.6,64.4z"/>
	</g>
	<text id="XMLID_42_" transform="matrix(1 0 0 1 -445.875 88.6875)" class="st6 st7 st8">PETRUS NOLETO</text>
</g>
</svg>
